<svg version="1.1" xmlns="http://www.w3.org/2000/svg" viewBox="0 0 756.709960977659 635.851270455262" width="756.709960977659" height="635.851270455262" filter="invert(93%) hue-rotate(180deg)">
  <!-- svg-source:excalidraw -->
  
  <defs>
    <style class="style-fonts">
      @font-face {
        font-family: "Virgil";
        src: url("https://excalidraw.com/Virgil.woff2");
      }
      @font-face {
        font-family: "Cascadia";
        src: url("https://excalidraw.com/Cascadia.woff2");
      }
      @font-face {
        font-family: "Assistant";
        src: url("https://excalidraw.com/Assistant-Regular.woff2");
      }
    </style>
    
  </defs>
  <rect x="0" y="0" width="756.709960977659" height="635.851270455262" fill="#ffffff"></rect><g stroke-linecap="round" transform="translate(479.3571953306516 334.9779967536482) rotate(0 80.86966677987982 141.8329540447124)"><path d="M32 0 C54.29 -1.24, 73.42 -1.93, 129.74 0 M32 0 C56.18 -0.46, 80.68 0.02, 129.74 0 M129.74 0 C151.71 1.04, 162.98 8.72, 161.74 32 M129.74 0 C151.82 0.62, 160.01 10.63, 161.74 32 M161.74 32 C163.7 94.54, 161.25 157.39, 161.74 251.67 M161.74 32 C161.74 113.74, 160.99 196.23, 161.74 251.67 M161.74 251.67 C159.94 274.19, 151.34 283.33, 129.74 283.67 M161.74 251.67 C160.19 270.98, 152.39 284.85, 129.74 283.67 M129.74 283.67 C101.44 285, 74.15 283.43, 32 283.67 M129.74 283.67 C92.85 282.81, 57.67 283.66, 32 283.67 M32 283.67 C9.28 282.03, 0.19 273, 0 251.67 M32 283.67 C11.7 284.45, -1.14 272.79, 0 251.67 M0 251.67 C-0.51 164.82, 1.49 78.64, 0 32 M0 251.67 C-0.04 181.13, -0.75 109.99, 0 32 M0 32 C1.61 9.51, 10.93 -1.64, 32 0 M0 32 C1.85 10.35, 9.16 -1.91, 32 0" stroke="#1e1e1e" stroke-width="2" fill="none"></path></g><g stroke-linecap="round" transform="translate(481.8454927700325 336.6368617132355) rotate(0 80.45495053998309 18.66223079535689)"><path d="M9.33 0 C36.63 1.22, 67.57 0.43, 151.58 0 M9.33 0 C40.89 -1.87, 71.32 -1.51, 151.58 0 M151.58 0 C157.11 1.23, 162.04 4.81, 160.91 9.33 M151.58 0 C158.27 0.75, 162.38 4.4, 160.91 9.33 M160.91 9.33 C160.34 15.02, 161.1 22.03, 160.91 27.99 M160.91 9.33 C160.47 13.99, 161.26 18.87, 160.91 27.99 M160.91 27.99 C162.08 32.46, 158.45 38.55, 151.58 37.32 M160.91 27.99 C159.2 33.38, 159.95 35.28, 151.58 37.32 M151.58 37.32 C104.95 38.56, 60.26 35.07, 9.33 37.32 M151.58 37.32 C120.38 36.65, 87.41 35.87, 9.33 37.32 M9.33 37.32 C2.92 36.52, 1.23 36.18, 0 27.99 M9.33 37.32 C3.33 35.88, -1.04 32.89, 0 27.99 M0 27.99 C1.31 21.8, -1.46 13.95, 0 9.33 M0 27.99 C0.28 23.49, 0.64 19.52, 0 9.33 M0 9.33 C0.99 4.1, 3.54 -1.47, 9.33 0 M0 9.33 C0.32 4.17, 3.68 -0.38, 9.33 0" stroke="#1e1e1e" stroke-width="2" fill="none"></path></g><g transform="translate(537.4174689162064 339.12515915261633) rotate(0 26.82550048828125 15.023725676636587)"><text x="0" y="21.057253908373838" font-family="Virgil, Segoe UI Emoji" font-size="24.037961082618533px" fill="#1e1e1e" text-anchor="start" style="white-space: pre;" direction="ltr" dominant-baseline="alphabetic">User</text></g><g stroke-linecap="round"><g transform="translate(481.8454927700325 409.62691993507576) rotate(0 78.38136934049896 0)"><path d="M-0.56 1.04 C25.28 1.12, 129.7 0.47, 155.73 0.1 M1.35 0.53 C27.49 0.86, 131.81 1.85, 157.9 1.69" stroke="#1e1e1e" stroke-width="2" fill="none"></path></g></g><mask></mask><g transform="translate(529.1231441182699 378.1084857029174) rotate(0 8.292472839355469 13.165009896108671)"><text x="0" y="18.452077870385917" font-family="Virgil, Segoe UI Emoji" font-size="21.064015833773876px" fill="#1e1e1e" text-anchor="start" style="white-space: pre;" direction="ltr" dominant-baseline="alphabetic">id</text></g><g stroke-linecap="round"><g transform="translate(591.330580102793 376.4496207433301) rotate(0 -0.4147162398968476 119.43827709028415)"><path d="M-0.06 -0.92 C-0.3 39.26, -0.6 199.84, -0.61 239.91 M-1.56 1.21 C-2 41.18, -1.62 198.95, -1.44 238.33" stroke="#1e1e1e" stroke-width="2" fill="none"></path></g></g><mask></mask><g stroke-linecap="round"><g transform="translate(482.06708962415337 451.36159127796464) rotate(0 78.38136934049896 0)"><path d="M-0.46 -1.11 C25.68 -1.05, 129.81 -1.14, 156.2 -0.76 M1.5 0.93 C27.49 1.21, 128.93 0.63, 154.96 0.39" stroke="#1e1e1e" stroke-width="2" fill="none"></path></g></g><mask></mask><g transform="translate(511.09722641693065 419.0137245660127) rotate(0 24.351234436035156 13.165009896108671)"><text x="0" y="18.452077870385917" font-family="Virgil, Segoe UI Emoji" font-size="21.064015833773876px" fill="#1e1e1e" text-anchor="start" style="white-space: pre;" direction="ltr" dominant-baseline="alphabetic">name</text></g><g stroke-linecap="round"><g transform="translate(481.2376571443597 494.49208022723394) rotate(0 78.38136934049896 0)"><path d="M-1.2 1 C24.67 0.99, 130.01 0.8, 156.35 0.56 M0.37 0.48 C25.95 0.06, 129.23 -1.29, 155.19 -1.27" stroke="#1e1e1e" stroke-width="2" fill="none"></path></g></g><mask></mask><g transform="translate(496.16744178064505 460.4853485556946) rotate(0 40.567848205566406 13.165009896108671)"><text x="0" y="18.452077870385917" font-family="Virgil, Segoe UI Emoji" font-size="21.064015833773876px" fill="#1e1e1e" text-anchor="start" style="white-space: pre;" direction="ltr" dominant-baseline="alphabetic">surname</text></g><g stroke-linecap="round"><g transform="translate(483.72595458374053 534.3048392573286) rotate(0 78.38136934049896 0)"><path d="M0.47 -0.93 C26.43 -1.08, 130.29 -0.71, 156.37 -0.64 M-0.74 1.19 C24.98 1.17, 129.05 0.67, 155.21 0.57" stroke="#1e1e1e" stroke-width="2" fill="none"></path></g></g><mask></mask><g transform="translate(509.43836145734326 502.7864050251703) rotate(0 24.50908660888672 13.165009896108671)"><text x="0" y="18.452077870385917" font-family="Virgil, Segoe UI Emoji" font-size="21.064015833773876px" fill="#1e1e1e" text-anchor="start" style="white-space: pre;" direction="ltr" dominant-baseline="alphabetic">email</text></g><g stroke-linecap="round"><g transform="translate(483.72595458374053 574.9470307672169) rotate(0 78.38136934049896 0)"><path d="M-0.12 0.49 C25.97 0.73, 131.79 0.91, 157.76 0.98 M-1.65 -0.3 C24.28 -0.34, 130.72 -0.51, 157.33 -0.63" stroke="#1e1e1e" stroke-width="2" fill="none"></path></g></g><mask></mask><g transform="translate(491.19084690188333 543.4285965350585) rotate(0 46.38732147216797 13.165009896108671)"><text x="0" y="18.452077870385917" font-family="Virgil, Segoe UI Emoji" font-size="21.064015833773876px" fill="#1e1e1e" text-anchor="start" style="white-space: pre;" direction="ltr" dominant-baseline="alphabetic">password</text></g><g transform="translate(517.7326862552798 584.0707880449469) rotate(0 13.270050048828125 13.1650098961087)"><text x="0" y="18.452077870385917" font-family="Virgil, Segoe UI Emoji" font-size="21.064015833773876px" fill="#1e1e1e" text-anchor="start" style="white-space: pre;" direction="ltr" dominant-baseline="alphabetic">url</text></g><g transform="translate(607.089797218872 383.9145130614729) rotate(0 8.4501953125 8.294324797936412)"><text x="0" y="11.625325636787654" font-family="Virgil, Segoe UI Emoji" font-size="13.270919676698234px" fill="#1e1e1e" text-anchor="start" style="white-space: pre;" direction="ltr" dominant-baseline="alphabetic">PK</text></g><g stroke-linecap="round"><g transform="translate(284.57244213957733 592.4480536199495) rotate(0 91.09595085765648 -118.06534477058995)"><path d="M-0.32 -1.02 C12.05 -3.6, 65.32 23.95, 73.16 -15.27 C80.99 -54.49, 28.65 -203.48, 46.69 -236.33 C64.72 -269.18, 158.91 -216.17, 181.37 -212.39 M1.71 1.06 C14.01 -1.85, 64.24 22.51, 72.14 -16.86 C80.03 -56.22, 30.89 -202.75, 49.07 -235.12 C67.24 -267.49, 158.83 -214.65, 181.18 -211.07" stroke="#1e1e1e" stroke-width="2" fill="none"></path></g><g transform="translate(284.57244213957733 592.4480536199495) rotate(0 91.09595085765648 -118.06534477058995)"><path d="M156.18 -211.18 C159.67 -211.32, 168.25 -212.69, 181.18 -211.07 M156.18 -211.18 C162.63 -211.91, 170.61 -210.6, 181.18 -211.07" stroke="#1e1e1e" stroke-width="2" fill="none"></path></g><g transform="translate(284.57244213957733 592.4480536199495) rotate(0 91.09595085765648 -118.06534477058995)"><path d="M162.1 -227.22 C164.38 -224.05, 171.74 -222.1, 181.18 -211.07 M162.1 -227.22 C166.76 -223.39, 173.06 -217.53, 181.18 -211.07" stroke="#1e1e1e" stroke-width="2" fill="none"></path></g></g><mask></mask><g stroke-linecap="round" transform="translate(109.84502558258521 375.8335109994563) rotate(0 84.59222731124214 118.62535359277427)"><path d="M32 0 C56.07 -1.57, 80.14 -2.1, 137.18 0 M32 0 C67.8 1.64, 101.74 1.81, 137.18 0 M137.18 0 C160.38 0.07, 170.08 12.2, 169.18 32 M137.18 0 C160.42 -0.83, 168.23 12.54, 169.18 32 M169.18 32 C169.7 94.86, 166.98 158.92, 169.18 205.25 M169.18 32 C169.7 68.85, 169.24 106.13, 169.18 205.25 M169.18 205.25 C170.66 225.39, 156.65 235.71, 137.18 237.25 M169.18 205.25 C168.98 224.29, 158.8 237.12, 137.18 237.25 M137.18 237.25 C100.73 238.5, 66.56 238.21, 32 237.25 M137.18 237.25 C112.47 236.87, 88.85 236.75, 32 237.25 M32 237.25 C11.71 235.98, -1.36 225.87, 0 205.25 M32 237.25 C12.25 237.39, -0.07 227.15, 0 205.25 M0 205.25 C0.32 140.65, -0.74 75.68, 0 32 M0 205.25 C0.41 156.38, 0.72 109.26, 0 32 M0 32 C-1.26 11.15, 9.27 -0.85, 32 0 M0 32 C-0.03 9.33, 9.28 0.35, 32 0" stroke="#1e1e1e" stroke-width="2" fill="none"></path></g><g stroke-linecap="round" transform="translate(112.44786334600815 377.56873617507154) rotate(0 84.1584210173383 19.521283225671255)"><path d="M9.76 0 C56.49 -0.88, 105.41 -0.44, 158.56 0 M9.76 0 C42.59 -0.23, 76.93 -1.2, 158.56 0 M158.56 0 C165.96 1.53, 169.97 2.53, 168.32 9.76 M158.56 0 C164.11 1.88, 169.71 1.58, 168.32 9.76 M168.32 9.76 C167.57 18.6, 166.86 24.18, 168.32 29.28 M168.32 9.76 C167.82 16.53, 169.03 24.6, 168.32 29.28 M168.32 29.28 C166.45 34.25, 164.89 37.05, 158.56 39.04 M168.32 29.28 C168.6 35.66, 165.93 39.31, 158.56 39.04 M158.56 39.04 C105.57 39.86, 50.36 39.95, 9.76 39.04 M158.56 39.04 C126.21 40.16, 94.66 39.15, 9.76 39.04 M9.76 39.04 C1.89 38.33, 1.38 35.91, 0 29.28 M9.76 39.04 C3.18 39.61, 1.81 35.11, 0 29.28 M0 29.28 C-1.2 26.05, -0.38 18.3, 0 9.76 M0 29.28 C-0.27 26.02, -0.47 21.34, 0 9.76 M0 9.76 C-1.4 2.4, 3.23 -1.16, 9.76 0 M0 9.76 C-1.39 3.61, 1.59 0.15, 9.76 0" stroke="#1e1e1e" stroke-width="2" fill="none"></path></g><g transform="translate(163.42291867463712 385.1043166901735) rotate(0 34.6109619140625 11.248188464110285)"><text x="0" y="15.765460951296971" font-family="Virgil, Segoe UI Emoji" font-size="17.997101542576452px" fill="#1e1e1e" text-anchor="start" style="white-space: pre;" direction="ltr" dominant-baseline="alphabetic">Product</text></g><g stroke-linecap="round"><g transform="translate(112.44786334600815 453.9186439021413) rotate(0 81.98938954781931 0)"><path d="M-0.87 -0.93 C26.8 -0.83, 137.5 0.64, 164.92 0.99 M0.87 1.2 C28.57 0.94, 137.49 -0.32, 164.46 -0.61" stroke="#1e1e1e" stroke-width="2" fill="none"></path></g></g><mask></mask><g transform="translate(161.90178085104196 420.9493655654521) rotate(0 8.67413330078125 13.771016427180967)"><text x="0" y="19.30145662433685" font-family="Virgil, Segoe UI Emoji" font-size="22.033626283489557px" fill="#1e1e1e" text-anchor="start" style="white-space: pre;" direction="ltr" dominant-baseline="alphabetic">id</text></g><g stroke-linecap="round"><g transform="translate(226.97272493661285 419.21414038983687) rotate(0 -2.539716266961989 94.85867868155594)"><path d="M-0.34 1.2 C-1.16 32.66, -3.26 158.19, -3.96 189.76 M1.68 0.78 C0.72 32.36, -3.21 159.99, -4.32 191.32" stroke="#1e1e1e" stroke-width="2" fill="none"></path></g></g><mask></mask><g stroke-linecap="round"><g transform="translate(112.67966065891471 497.5744291375023) rotate(0 81.98938954781931 0)"><path d="M1.12 0.04 C28.59 0, 137.21 1, 164.52 0.92 M0.24 -0.98 C27.64 -0.85, 136.44 -0.99, 163.85 -0.72" stroke="#1e1e1e" stroke-width="2" fill="none"></path></g></g><mask></mask><g transform="translate(141.77518155548296 462.31389832077275) rotate(0 25.472007751464844 13.771016427180967)"><text x="0" y="19.30145662433685" font-family="Virgil, Segoe UI Emoji" font-size="22.033626283489557px" fill="#1e1e1e" text-anchor="start" style="white-space: pre;" direction="ltr" dominant-baseline="alphabetic">name</text></g><g transform="translate(135.47588489412055 579.1181676033862) rotate(0 29.59345245361328 11.559196481064589)"><text x="0" y="16.201369787860095" font-family="Virgil, Segoe UI Emoji" font-size="18.494714369703303px" fill="#1e1e1e" text-anchor="start" style="white-space: pre;" direction="ltr" dominant-baseline="alphabetic">userId</text></g><g transform="translate(243.45736410495738 427.02265368010546) rotate(0 8.838386535644531 8.676125878076107)"><text x="0" y="12.160458030711485" font-family="Virgil, Segoe UI Emoji" font-size="13.881801404921784px" fill="#1e1e1e" text-anchor="start" style="white-space: pre;" direction="ltr" dominant-baseline="alphabetic">PK</text></g><g transform="translate(240.07484856252256 585.7269296142223) rotate(0 7.873138427734375 8.294324797936383)"><text x="0" y="11.625325636787654" font-family="Virgil, Segoe UI Emoji" font-size="13.270919676698234px" fill="#1e1e1e" text-anchor="start" style="white-space: pre;" direction="ltr" dominant-baseline="alphabetic">FK</text></g><g transform="translate(128.18481878784632 540.7189447381488) rotate(0 39.58003234863281 12.179069561872694)"><text x="0" y="17.070183897920764" font-family="Virgil, Segoe UI Emoji" font-size="19.48651129899631px" fill="#1e1e1e" text-anchor="start" style="white-space: pre;" direction="ltr" dominant-baseline="alphabetic">quantity</text></g><g transform="translate(119.13575415161586 502.3108916034571) rotate(0 49.72327423095703 12.179069561872694)"><text x="0" y="17.070183897920764" font-family="Virgil, Segoe UI Emoji" font-size="19.48651129899631px" fill="#1e1e1e" text-anchor="start" style="white-space: pre;" direction="ltr" dominant-baseline="alphabetic">description</text></g><g stroke-linecap="round"><g transform="translate(114.48340956261325 534.516760119255) rotate(0 81.98938954781931 0)"><path d="M1.2 -0.57 C28.65 -0.8, 136.37 -1.07, 163.66 -0.92 M0.36 1.75 C27.73 1.59, 135.17 0.73, 162.54 0.14" stroke="#1e1e1e" stroke-width="2" fill="none"></path></g></g><mask></mask><g stroke-linecap="round"><g transform="translate(113.8529762987182 571.0978611098163) rotate(0 81.98938954781931 0)"><path d="M-1 -1.05 C26.07 -1.07, 135.47 -0.9, 163.15 -0.67 M0.68 1.01 C28.07 1.18, 138.05 0.98, 165.43 0.52" stroke="#1e1e1e" stroke-width="2" fill="none"></path></g></g><mask></mask><g stroke-linecap="round"><g transform="translate(655.1950050655266 176.12808905637584) rotate(0 44.94338388905351 118.51316304613039)"><path d="M0.04 0.09 C9.99 2.56, 45.83 6.31, 59.96 13.91 C74.09 21.51, 79.63 31.84, 84.82 45.71 C90.01 59.58, 92.57 70.5, 91.11 97.11 C89.65 123.73, 85.02 182.11, 76.08 205.39 C67.14 228.68, 50.6 233.34, 37.44 236.82 C24.29 240.3, 3.66 227.87, -2.85 226.26 M-1.4 -0.91 C8.44 1.76, 45.2 7.07, 59.41 14.96 C73.63 22.85, 78.64 32.62, 83.87 46.43 C89.1 60.24, 91.82 71.22, 90.79 97.83 C89.76 124.44, 86.32 183.1, 77.69 206.07 C69.05 229.04, 52.36 231.99, 38.99 235.67 C25.63 239.36, 4.38 229.63, -2.5 228.17" stroke="#1e1e1e" stroke-width="2" fill="none"></path></g><g transform="translate(655.1950050655266 176.12808905637584) rotate(0 44.94338388905351 118.51316304613039)"><path d="M17.85 227.23 C11.48 228.82, 3.26 227.23, -2.5 228.17 M17.85 227.23 C12.74 227.76, 9.7 227.32, -2.5 228.17" stroke="#1e1e1e" stroke-width="2" fill="none"></path></g><g transform="translate(655.1950050655266 176.12808905637584) rotate(0 44.94338388905351 118.51316304613039)"><path d="M13.69 240.53 C8.75 237.86, 1.86 232.01, -2.5 228.17 M13.69 240.53 C9.55 238.35, 7.37 235.18, -2.5 228.17" stroke="#1e1e1e" stroke-width="2" fill="none"></path></g></g><mask></mask><g transform="translate(649.4252942040296 180.67985655679402) rotate(0 6.439994812011719 12.5)"><text x="0" y="17.52" font-family="Virgil, Segoe UI Emoji" font-size="20px" fill="#1e1e1e" text-anchor="start" style="white-space: pre;" direction="ltr" dominant-baseline="alphabetic">N</text></g><g transform="translate(450.3816898300977 39.49754716767964) rotate(0 6.439994812011719 12.5)"><text x="0" y="17.52" font-family="Virgil, Segoe UI Emoji" font-size="20px" fill="#1e1e1e" text-anchor="start" style="white-space: pre;" direction="ltr" dominant-baseline="alphabetic">N</text></g><g transform="translate(86.94169501808597 395.9975471676796) rotate(0 6.439994812011719 12.5)"><text x="0" y="17.52" font-family="Virgil, Segoe UI Emoji" font-size="20px" fill="#1e1e1e" text-anchor="start" style="white-space: pre;" direction="ltr" dominant-baseline="alphabetic">N</text></g><g transform="translate(454.671690745625 336.851270455262) rotate(0 2.7099990844726562 12.5)"><text x="0" y="17.52" font-family="Virgil, Segoe UI Emoji" font-size="20px" fill="#1e1e1e" text-anchor="start" style="white-space: pre;" direction="ltr" dominant-baseline="alphabetic">1</text></g><g transform="translate(279.9416950180861 600.851270455262) rotate(0 6.439994812011719 12.5)"><text x="0" y="17.52" font-family="Virgil, Segoe UI Emoji" font-size="20px" fill="#1e1e1e" text-anchor="start" style="white-space: pre;" direction="ltr" dominant-baseline="alphabetic">N</text></g><g stroke-linecap="round" transform="translate(475.4036745675073 11.864607572555457) rotate(0 84.59222731124214 118.12535359277425)"><path d="M32 0 C68.05 -1.33, 106.15 1.57, 137.18 0 M32 0 C67.48 -0.08, 100.76 0.21, 137.18 0 M137.18 0 C159.06 -0.85, 169.12 11.97, 169.18 32 M137.18 0 C160.53 0.85, 171.33 9.05, 169.18 32 M169.18 32 C170.67 73.35, 169.37 113.59, 169.18 204.25 M169.18 32 C167.41 93.53, 168.62 156.55, 169.18 204.25 M169.18 204.25 C170.44 227.14, 160.49 234.57, 137.18 236.25 M169.18 204.25 C171.17 227.88, 157.07 235.33, 137.18 236.25 M137.18 236.25 C108.74 235.03, 84.45 238.54, 32 236.25 M137.18 236.25 C95.26 234.76, 54.31 235.25, 32 236.25 M32 236.25 C11.91 237.26, 1.25 224.48, 0 204.25 M32 236.25 C8.61 236.24, -0.25 224.74, 0 204.25 M0 204.25 C-0.55 162.47, -1.61 119.88, 0 32 M0 204.25 C0.58 137.85, 1.15 72.74, 0 32 M0 32 C0.19 12.57, 10.08 -1.18, 32 0 M0 32 C1.31 12.42, 12.52 0.25, 32 0" stroke="#1e1e1e" stroke-width="2" fill="none"></path></g><g stroke-linecap="round" transform="translate(478.00651233093026 13.599832748170826) rotate(0 84.15842101733836 19.52128322567126)"><path d="M9.76 0 C60.68 2.65, 109.07 1.64, 158.56 0 M9.76 0 C51.87 0.39, 96.2 -0.14, 158.56 0 M158.56 0 C165 1.3, 170.07 3.99, 168.32 9.76 M158.56 0 C167.21 -1.62, 166.79 4.33, 168.32 9.76 M168.32 9.76 C167.78 17.79, 169.56 22.47, 168.32 29.28 M168.32 9.76 C168.74 14.78, 168.81 19.79, 168.32 29.28 M168.32 29.28 C170.28 34.1, 166.79 41.03, 158.56 39.04 M168.32 29.28 C166.87 34.87, 164.03 36.89, 158.56 39.04 M158.56 39.04 C108.2 39.61, 57.87 36.01, 9.76 39.04 M158.56 39.04 C125.58 37.91, 93.6 38.58, 9.76 39.04 M9.76 39.04 C4.51 37.94, -1.79 35.78, 0 29.28 M9.76 39.04 C3.01 38.2, -1.27 37.96, 0 29.28 M0 29.28 C-0.09 21.57, 1.53 13.67, 0 9.76 M0 29.28 C0.78 25.39, 0.04 20.94, 0 9.76 M0 9.76 C-0.58 2.07, 4.39 1.52, 9.76 0 M0 9.76 C1.85 3.5, 2.92 -0.09, 9.76 0" stroke="#1e1e1e" stroke-width="2" fill="none"></path></g><g transform="translate(528.9815676595592 21.13541326327268) rotate(0 23.910240173339844 11.248188464110282)"><text x="0" y="15.765460951296971" font-family="Virgil, Segoe UI Emoji" font-size="17.997101542576452px" fill="#1e1e1e" text-anchor="start" style="white-space: pre;" direction="ltr" dominant-baseline="alphabetic">Billing</text></g><g stroke-linecap="round"><g transform="translate(478.00651233093026 89.94974047524047) rotate(0 81.98938954781931 0)"><path d="M0.53 -0.13 C27.8 -0.23, 137.67 -0.28, 164.71 -0.23 M-0.65 -1.24 C26.42 -1.19, 136.53 0.72, 164.15 1.18" stroke="#1e1e1e" stroke-width="2" fill="none"></path></g></g><mask></mask><g transform="translate(527.4604298359639 56.98046213855142) rotate(0 8.67413330078125 13.771016427180973)"><text x="0" y="19.30145662433685" font-family="Virgil, Segoe UI Emoji" font-size="22.033626283489557px" fill="#1e1e1e" text-anchor="start" style="white-space: pre;" direction="ltr" dominant-baseline="alphabetic">id</text></g><g stroke-linecap="round"><g transform="translate(592.5313739215351 55.24523696293605) rotate(0 -2.539716266961932 95.85867868155594)"><path d="M-1.16 0.13 C-2.08 32.03, -4.1 159.14, -4.75 191.21 M0.43 -0.85 C-0.68 31.23, -4.48 160.57, -5.53 192.47" stroke="#1e1e1e" stroke-width="2" fill="none"></path></g></g><mask></mask><g stroke-linecap="round"><g transform="translate(478.2383096438368 133.60552571060148) rotate(0 81.98938954781931 0)"><path d="M0.32 -0.51 C27.84 -0.4, 136.49 0.62, 163.94 0.78 M-0.96 -1.83 C26.49 -2.07, 135.34 -0.96, 162.97 -0.93" stroke="#1e1e1e" stroke-width="2" fill="none"></path></g></g><mask></mask><g transform="translate(481.03453387904256 178.14926417648545) rotate(0 50.425315856933594 11.55919648106456)"><text x="0" y="16.201369787860095" font-family="Virgil, Segoe UI Emoji" font-size="18.494714369703303px" fill="#1e1e1e" text-anchor="start" style="white-space: pre;" direction="ltr" dominant-baseline="alphabetic">customerId</text></g><g transform="translate(609.0160130898796 63.05375025320464) rotate(0 8.838386535644531 8.676125878076116)"><text x="0" y="12.160458030711485" font-family="Virgil, Segoe UI Emoji" font-size="13.881801404921784px" fill="#1e1e1e" text-anchor="start" style="white-space: pre;" direction="ltr" dominant-baseline="alphabetic">PK</text></g><g transform="translate(606.6334975474444 181.75802618732146) rotate(0 7.873138427734375 8.294324797936397)"><text x="0" y="11.625325636787654" font-family="Virgil, Segoe UI Emoji" font-size="13.270919676698234px" fill="#1e1e1e" text-anchor="start" style="white-space: pre;" direction="ltr" dominant-baseline="alphabetic">FK</text></g><g transform="translate(500.7434677727683 138.7500413112481) rotate(0 33.5933837890625 12.179069561872694)"><text x="0" y="17.070183897920764" font-family="Virgil, Segoe UI Emoji" font-size="19.48651129899631px" fill="#1e1e1e" text-anchor="start" style="white-space: pre;" direction="ltr" dominant-baseline="alphabetic">status</text></g><g transform="translate(493.69440313653786 99.34198817655638) rotate(0 41.974700927734375 12.179069561872694)"><text x="0" y="17.070183897920764" font-family="Virgil, Segoe UI Emoji" font-size="19.48651129899631px" fill="#1e1e1e" text-anchor="start" style="white-space: pre;" direction="ltr" dominant-baseline="alphabetic">datetime</text></g><g stroke-linecap="round"><g transform="translate(480.04205854753513 170.54785669235426) rotate(0 81.98938954781931 0)"><path d="M0.63 0.72 C27.72 0.66, 136.1 -0.52, 163.19 -0.75 M-0.49 0.06 C26.92 0.17, 137.79 0.35, 165.49 0.39" stroke="#1e1e1e" stroke-width="2" fill="none"></path></g></g><mask></mask><g transform="translate(499.8202871980434 218.71149167597574) rotate(0 29.59345245361328 11.55919648106456)"><text x="0" y="16.201369787860095" font-family="Virgil, Segoe UI Emoji" font-size="18.494714369703303px" fill="#1e1e1e" text-anchor="start" style="white-space: pre;" direction="ltr" dominant-baseline="alphabetic">userId</text></g><g transform="translate(602.4192508664455 222.32025368681175) rotate(0 7.873138427734375 8.294324797936397)"><text x="0" y="11.625325636787654" font-family="Virgil, Segoe UI Emoji" font-size="13.270919676698234px" fill="#1e1e1e" text-anchor="start" style="white-space: pre;" direction="ltr" dominant-baseline="alphabetic">FK</text></g><g stroke-linecap="round"><g transform="translate(475.8278118665362 211.11008419184455) rotate(0 81.98938954781931 0)"><path d="M-0.54 -1.13 C27.11 -0.88, 137.48 0.33, 164.96 0.41 M1.38 0.89 C29.03 0.87, 137.46 -1.41, 164.53 -1.49" stroke="#1e1e1e" stroke-width="2" fill="none"></path></g></g><mask></mask><g stroke-linecap="round"><g transform="translate(656.6496297586689 222.8815386592626) rotate(0 31.870228587450583 85.22926694362053)"><path d="M-1.08 1.07 C5.61 2.6, 29.71 4.77, 39.83 9.93 C49.94 15.1, 55.73 22.38, 59.62 32.05 C63.51 41.72, 63.94 54.96, 63.18 67.96 C62.43 80.96, 61.61 96.76, 55.08 110.06 C48.56 123.36, 33.18 137.6, 24.02 147.78 C14.87 157.96, 4.17 167.43, 0.16 171.13 M0.55 0.58 C7.63 2.22, 32.18 5.86, 41.96 11.3 C51.74 16.73, 55.7 23.53, 59.23 33.19 C62.76 42.85, 63.49 56.39, 63.14 69.23 C62.78 82.07, 63.39 97.18, 57.08 110.21 C50.77 123.23, 34.64 137.37, 25.27 147.36 C15.91 157.34, 5.27 166.46, 0.87 170.13" stroke="#1e1e1e" stroke-width="2" fill="none"></path></g><g transform="translate(656.6496297586689 222.8815386592626) rotate(0 31.870228587450583 85.22926694362053)"><path d="M9.25 155.31 C8.58 157.7, 4.33 164.29, 0.87 170.13 M9.25 155.31 C6.64 159.03, 4.41 164.22, 0.87 170.13" stroke="#1e1e1e" stroke-width="2" fill="none"></path></g><g transform="translate(656.6496297586689 222.8815386592626) rotate(0 31.870228587450583 85.22926694362053)"><path d="M16.81 164.16 C14.04 164.08, 7.73 168.28, 0.87 170.13 M16.81 164.16 C12.2 165.5, 7.9 168.28, 0.87 170.13" stroke="#1e1e1e" stroke-width="2" fill="none"></path></g></g><mask></mask><g transform="translate(647.5036113694043 363.8003971756905) rotate(0 2.7099990844726562 12.5)"><text x="0" y="17.52" font-family="Virgil, Segoe UI Emoji" font-size="20px" fill="#1e1e1e" text-anchor="start" style="white-space: pre;" direction="ltr" dominant-baseline="alphabetic">1</text></g><g transform="translate(644.7736156418653 237.8003971756905) rotate(0 6.439994812011719 12.5)"><text x="0" y="17.52" font-family="Virgil, Segoe UI Emoji" font-size="20px" fill="#1e1e1e" text-anchor="start" style="white-space: pre;" direction="ltr" dominant-baseline="alphabetic">N</text></g><g transform="translate(651.5036113694043 411.8003971756905) rotate(0 2.7099990844726562 12.5)"><text x="0" y="17.52" font-family="Virgil, Segoe UI Emoji" font-size="20px" fill="#1e1e1e" text-anchor="start" style="white-space: pre;" direction="ltr" dominant-baseline="alphabetic">1</text></g><g stroke-linecap="round" transform="translate(114.47412042345366 10) rotate(0 84.59222731124214 99.12535359277425)"><path d="M32 0 C65.5 1.29, 97.87 0.82, 137.18 0 M32 0 C69.61 0.16, 107.94 -1.33, 137.18 0 M137.18 0 C157.72 0.2, 167.79 11.06, 169.18 32 M137.18 0 C159.74 1.76, 168.81 11.77, 169.18 32 M169.18 32 C170.57 84.85, 168.57 135.69, 169.18 166.25 M169.18 32 C169.13 83.88, 169.29 134.32, 169.18 166.25 M169.18 166.25 C167.58 188.12, 158.13 197.77, 137.18 198.25 M169.18 166.25 C168.05 186.68, 157.99 196.31, 137.18 198.25 M137.18 198.25 C113.56 198.94, 86.74 199.52, 32 198.25 M137.18 198.25 C107.86 197.67, 79.59 197.16, 32 198.25 M32 198.25 C12.35 199.09, 0.24 187.89, 0 166.25 M32 198.25 C9.37 196.58, 1.48 186.09, 0 166.25 M0 166.25 C1.91 137.23, 1.74 108.01, 0 32 M0 166.25 C-0.31 135.18, -0.89 105.83, 0 32 M0 32 C-0.7 11.38, 10.12 -0.71, 32 0 M0 32 C0.03 9.92, 10.99 -0.44, 32 0" stroke="#1e1e1e" stroke-width="2" fill="none"></path></g><g stroke-linecap="round" transform="translate(117.0769581868766 11.73522517561537) rotate(0 84.1584210173383 19.52128322567126)"><path d="M9.76 0 C63.12 0.04, 119.68 -1.5, 158.56 0 M9.76 0 C66.81 -1.97, 121.51 -1.35, 158.56 0 M158.56 0 C163.66 0.39, 169.38 4.79, 168.32 9.76 M158.56 0 C164.69 1.1, 170.18 2.71, 168.32 9.76 M168.32 9.76 C168.19 18.94, 170.05 24.63, 168.32 29.28 M168.32 9.76 C168.99 15.3, 167.62 20.77, 168.32 29.28 M168.32 29.28 C167.93 35.3, 164.07 38.26, 158.56 39.04 M168.32 29.28 C167.79 33.85, 163.75 39.47, 158.56 39.04 M158.56 39.04 C120.77 41.59, 81.15 39.94, 9.76 39.04 M158.56 39.04 C123.7 38.72, 88.71 39.58, 9.76 39.04 M9.76 39.04 C3.49 39.35, -1.12 34.33, 0 29.28 M9.76 39.04 C4.73 37.54, -1.76 33.67, 0 29.28 M0 29.28 C0.42 26.54, -1.51 20.32, 0 9.76 M0 29.28 C-0.77 25.24, -0.29 21.15, 0 9.76 M0 9.76 C-0.54 2.55, 3.28 -0.65, 9.76 0 M0 9.76 C0.33 2.81, 2.65 -1.8, 9.76 0" stroke="#1e1e1e" stroke-width="2" fill="none"></path></g><g transform="translate(137.05201351550556 21.270805690717225) rotate(0 65.9487533569336 11.248188464110282)"><text x="0" y="15.765460951296971" font-family="Virgil, Segoe UI Emoji" font-size="17.997101542576452px" fill="#1e1e1e" text-anchor="start" style="white-space: pre;" direction="ltr" dominant-baseline="alphabetic">Billing_Product</text></g><g stroke-linecap="round"><g transform="translate(117.0769581868766 88.08513290268502) rotate(0 81.98938954781931 0)"><path d="M-0.02 0.92 C27.19 1, 136.61 1.42, 164.13 1.16 M-1.48 0.36 C25.5 0.08, 135.52 -0.35, 163.27 -0.35" stroke="#1e1e1e" stroke-width="2" fill="none"></path></g></g><mask></mask><g transform="translate(136.53087569191018 57.11585456599596) rotate(0 39.121673583984375 13.771016427180973)"><text x="0" y="19.30145662433685" font-family="Virgil, Segoe UI Emoji" font-size="22.033626283489557px" fill="#1e1e1e" text-anchor="start" style="white-space: pre;" direction="ltr" dominant-baseline="alphabetic">billingId</text></g><g stroke-linecap="round"><g transform="translate(231.6018197774814 53.38062939038059) rotate(0 -2.039716266961932 76.35867868155594)"><path d="M1.17 -0.63 C0.38 24.65, -3.54 127.24, -4.56 152.83 M0.32 1.66 C-0.67 27.66, -5.29 128.98, -5.76 154.43" stroke="#1e1e1e" stroke-width="2" fill="none"></path></g></g><mask></mask><g stroke-linecap="round"><g transform="translate(117.30875549978316 131.74091813804603) rotate(0 81.98938954781931 0)"><path d="M-0.48 0.12 C26.52 0.26, 135.62 0.1, 163.14 0.24 M1.47 -0.87 C28.74 -1.05, 138.29 -1.75, 165.41 -1.76" stroke="#1e1e1e" stroke-width="2" fill="none"></path></g></g><mask></mask><g transform="translate(248.08645894582594 61.189142680649184) rotate(0 8.838386535644531 8.676125878076116)"><text x="0" y="12.160458030711485" font-family="Virgil, Segoe UI Emoji" font-size="13.881801404921784px" fill="#1e1e1e" text-anchor="start" style="white-space: pre;" direction="ltr" dominant-baseline="alphabetic">PK</text></g><g transform="translate(130.76484899248442 176.47738060400093) rotate(0 41.974700927734375 12.179069561872694)"><text x="0" y="17.070183897920764" font-family="Virgil, Segoe UI Emoji" font-size="19.48651129899631px" fill="#1e1e1e" text-anchor="start" style="white-space: pre;" direction="ltr" dominant-baseline="alphabetic">datetime</text></g><g stroke-linecap="round"><g transform="translate(119.11250440348147 168.6832491197988) rotate(0 81.98938954781931 0)"><path d="M1.03 -0.18 C28.3 -0.19, 137.74 0.99, 164.83 0.97 M0.11 -1.32 C27.19 -1.13, 137.25 -1.01, 164.32 -0.65" stroke="#1e1e1e" stroke-width="2" fill="none"></path></g></g><mask></mask><g transform="translate(119.75638155487502 95.8725106217853) rotate(0 52.78233337402344 13.771016427180971)"><text x="0" y="19.30145662433685" font-family="Virgil, Segoe UI Emoji" font-size="22.033626283489557px" fill="#1e1e1e" text-anchor="start" style="white-space: pre;" direction="ltr" dominant-baseline="alphabetic">productId</text></g><g transform="translate(248.03966860321486 100.96740117089016) rotate(0 8.838386535644531 8.676125878076117)"><text x="0" y="12.160458030711485" font-family="Virgil, Segoe UI Emoji" font-size="13.881801404921784px" fill="#1e1e1e" text-anchor="start" style="white-space: pre;" direction="ltr" dominant-baseline="alphabetic">PK</text></g><g stroke-linecap="round"><g transform="translate(463.67249198606464 72.78881810221762) rotate(0 -86.48302035183349 -9.076099952320504)"><path d="M-1.02 -0.78 C-9.81 -2.81, -37.83 -8.87, -52.36 -11.76 C-66.89 -14.66, -78.65 -17.53, -88.18 -18.16 C-97.71 -18.78, -103.17 -17.87, -109.54 -15.51 C-115.91 -13.15, -120.45 -6.72, -126.4 -4.01 C-132.35 -1.3, -137.58 0.06, -145.24 0.77 C-152.9 1.48, -167.85 0.48, -172.36 0.25 M0.65 1.43 C-8.36 -0.97, -39.04 -9.76, -53.46 -13.37 C-67.87 -16.99, -76.53 -19.55, -85.86 -20.26 C-95.19 -20.97, -102.45 -20.44, -109.44 -17.62 C-116.43 -14.81, -121.49 -6.37, -127.79 -3.37 C-134.1 -0.38, -139.99 -0.01, -147.26 0.35 C-154.53 0.71, -167.11 -1.5, -171.4 -1.21" stroke="#1e1e1e" stroke-width="2" fill="none"></path></g><g transform="translate(463.67249198606464 72.78881810221762) rotate(0 -86.48302035183349 -9.076099952320504)"><path d="M-158.36 -5.26 C-163.58 -4.34, -165.93 -3.9, -171.4 -1.21 M-158.36 -5.26 C-162.69 -3.53, -166.93 -1.77, -171.4 -1.21" stroke="#1e1e1e" stroke-width="2" fill="none"></path></g><g transform="translate(463.67249198606464 72.78881810221762) rotate(0 -86.48302035183349 -9.076099952320504)"><path d="M-158.8 4.07 C-163.91 1.88, -166.12 -0.79, -171.4 -1.21 M-158.8 4.07 C-162.96 2.64, -167.06 1.26, -171.4 -1.21" stroke="#1e1e1e" stroke-width="2" fill="none"></path></g></g><mask></mask><g stroke-linecap="round"><g transform="translate(97.73153146654647 431.1994714369938) rotate(0 -40.76136013720367 -165.50562442804963)"><path d="M-0.67 -0.28 C-10.3 -5.39, -52.93 -10.5, -57.93 -31.58 C-62.92 -52.66, -27.43 -101.65, -30.63 -126.76 C-33.83 -151.87, -67.71 -159.15, -77.12 -182.23 C-86.54 -205.32, -89.06 -244.47, -87.12 -265.27 C-85.18 -286.08, -80.8 -295.93, -65.5 -307.04 C-50.2 -318.15, -6.9 -327.97, 4.67 -331.92 M1.17 -1.48 C-8.58 -6.37, -53.41 -9.81, -58.8 -30.48 C-64.18 -51.16, -28.15 -99.9, -31.15 -125.52 C-34.16 -151.14, -67.79 -160.9, -76.81 -184.2 C-85.82 -207.5, -87.37 -245.21, -85.23 -265.3 C-83.1 -285.4, -79.05 -293.96, -63.99 -304.76 C-48.93 -315.56, -6.53 -325.72, 5.13 -330.09" stroke="#1e1e1e" stroke-width="2" fill="none"></path></g><g transform="translate(97.73153146654647 431.1994714369938) rotate(0 -40.76136013720367 -165.50562442804963)"><path d="M-14.77 -314.95 C-9.44 -318.91, -4.7 -322.7, 5.13 -330.09 M-14.77 -314.95 C-9.54 -320.15, -3.2 -324.38, 5.13 -330.09" stroke="#1e1e1e" stroke-width="2" fill="none"></path></g><g transform="translate(97.73153146654647 431.1994714369938) rotate(0 -40.76136013720367 -165.50562442804963)"><path d="M-19.84 -331.28 C-13.2 -330.55, -7.01 -329.68, 5.13 -330.09 M-19.84 -331.28 C-13.14 -331.83, -5.34 -331.37, 5.13 -330.09" stroke="#1e1e1e" stroke-width="2" fill="none"></path></g></g><mask></mask><g transform="translate(95.90579418686355 120.14352704896626) rotate(0 2.7099990844726562 12.5)"><text x="0" y="17.52" font-family="Virgil, Segoe UI Emoji" font-size="20px" fill="#1e1e1e" text-anchor="start" style="white-space: pre;" direction="ltr" dominant-baseline="alphabetic">1</text></g><g transform="translate(295.90579418686355 37.14352704896626) rotate(0 2.7099990844726562 12.5)"><text x="0" y="17.52" font-family="Virgil, Segoe UI Emoji" font-size="20px" fill="#1e1e1e" text-anchor="start" style="white-space: pre;" direction="ltr" dominant-baseline="alphabetic">1</text></g><g transform="translate(133.1298828556868 137.15071222685492) rotate(0 39.58003234863281 12.179069561872694)"><text x="0" y="17.070183897920764" font-family="Virgil, Segoe UI Emoji" font-size="19.48651129899631px" fill="#1e1e1e" text-anchor="start" style="white-space: pre;" direction="ltr" dominant-baseline="alphabetic">quantity</text></g></svg>